<?xml version="1.0" standalone="no"?>
<!DOCTYPE svg PUBLIC "-//W3C//DTD SVG 20010904//EN"
 "http://www.w3.org/TR/2001/REC-SVG-20010904/DTD/svg10.dtd">
<svg version="1.0" xmlns="http://www.w3.org/2000/svg"
 width="64.000000pt" height="64.000000pt" viewBox="0 0 64.000000 64.000000"
 preserveAspectRatio="xMidYMid meet">

<g transform="translate(0.000000,64.000000) scale(0.100000,-0.100000)"
fill="#000000" stroke="none">
<path d="M234 591 c-98 -59 -117 -157 -59 -293 6 -16 1 -18 -39 -18 -45 0 -45
0 -56 -42 -6 -24 -21 -78 -32 -120 -11 -42 -18 -84 -15 -92 6 -14 41 -16 292
-16 251 0 286 2 292 16 3 8 -4 50 -15 92 -11 42 -26 96 -32 120 -11 41 -11 42
-55 42 -25 0 -45 1 -45 3 0 1 9 26 20 55 11 29 20 70 20 93 0 69 -51 145 -113
168 -46 18 -128 13 -163 -8z m162 -20 c56 -25 88 -79 88 -146 0 -39 -9 -67
-42 -130 -24 -44 -60 -104 -81 -133 l-38 -53 -52 75 c-134 195 -140 325 -18
385 52 26 90 26 143 2z m-142 -406 c32 -47 63 -85 70 -85 7 0 37 38 67 84 l54
85 47 0 47 1 15 -52 c26 -95 36 -133 36 -145 0 -10 -60 -13 -265 -13 -205 0
-265 3 -265 13 0 12 10 50 36 145 l15 52 42 0 c43 0 44 -1 101 -85z"/>
<path d="M278 514 c-35 -19 -48 -43 -48 -92 0 -33 6 -45 31 -66 19 -17 43 -26
64 -26 21 0 45 9 64 26 25 21 31 33 31 66 0 50 -13 74 -50 93 -36 19 -57 18
-92 -1z m101 -40 c42 -54 13 -118 -54 -118 -67 0 -96 64 -54 118 15 19 30 26
54 26 24 0 39 -7 54 -26z"/>
</g>
</svg>
